<?xml version="1.0" encoding="UTF-8"?>
<svg xmlns="http://www.w3.org/2000/svg" xmlns:xlink="http://www.w3.org/1999/xlink" width="2100" height="2100" viewBox="0 0 2100 2100">

<path fill-rule="nonzero" fill="rgb(0%, 0%, 0%)" fill-opacity="1" d="M 1050 375 C 677.527344 375 375 677.53125 375 1050 C 375 1422.472656 677.527344 1725 1050 1725 C 1422.46875 1725 1725 1422.472656 1725 1050 C 1725 677.53125 1422.46875 375 1050 375 Z M 1050 428.929688 C 1393.289062 428.929688 1671.070312 706.710938 1671.070312 1050 C 1671.070312 1233.511719 1591.171875 1397.75 1464.839844 1511.390625 L 1463.300781 1505.835938 C 1438.789062 1417.671875 1397.761719 1349.238281 1333.5 1289.132812 C 1301.710938 1259.394531 1271.808594 1235.0625 1267.058594 1235.0625 C 1262.300781 1235.0625 1239.878906 1249.179688 1217.210938 1266.492188 C 1117.089844 1342.910156 982.773438 1342.910156 882.660156 1266.492188 C 859.988281 1249.1875 837.5625 1235.0625 832.808594 1235.0625 C 828.046875 1235.0625 798.152344 1259.394531 766.363281 1289.132812 C 702.109375 1349.238281 661.148438 1417.671875 636.636719 1505.835938 L 635.089844 1511.390625 C 508.789062 1397.75 428.933594 1233.492188 428.933594 1050 C 428.933594 706.710938 706.71875 428.929688 1050 428.929688 Z M 1049.929688 763.191406 C 987.066406 763.191406 924.238281 788.898438 872.742188 840.398438 C 800.207031 912.941406 780.183594 996.25 810.65625 1098.871094 C 829.867188 1163.558594 901.808594 1237.058594 964.921875 1256.4375 C 1066.011719 1287.476562 1155.328125 1266.769531 1226.339844 1195.757812 C 1330.21875 1091.878906 1330.570312 943.78125 1227.191406 840.398438 C 1175.691406 788.898438 1112.800781 763.191406 1049.929688 763.191406 Z M 1049.929688 763.191406 "/>
</svg>
